<svg width="143" height="21" viewBox="0 0 143 21" fill="none" xmlns="http://www.w3.org/2000/svg">
<g clip-path="url(#clip0_95_2)">
<path d="M17.7775 16.3673C15.7533 18.771 12.6232 20.2142 9.16989 19.9096C4.16558 19.4645 0.215545 15.2708 0.0468605 10.2524C-0.145253 4.53122 4.42329 0.192276 10.0883 0.192276C12.7732 0.192276 15.2144 1.24656 17.0184 2.96152C17.1168 3.05523 17.1121 3.20986 17.0184 3.29889L14.4179 5.73544C14.3241 5.81979 14.1836 5.8151 14.0945 5.72607C10.8193 2.48358 3.05507 3.59408 3.05507 10.646C3.05507 18.2978 12.7732 20.3642 16.8029 15.5051C17.0184 15.2333 17.1637 15.1865 17.3136 15.2755C17.4636 15.3645 17.829 15.7113 17.8993 15.7956C18.0305 15.9502 18.054 16.0955 17.7775 16.3673Z" fill="black" stroke="black" stroke-width="0.0796567" stroke-miterlimit="10"/>
<path d="M28.3391 20.1625C35.4613 20.1625 36.9514 15.9407 36.9514 13.1246V0.955887C36.9514 0.829373 36.8483 0.726288 36.7218 0.726288H33.2122C33.0857 0.726288 32.9826 0.829373 32.9826 0.955887V13.0403C32.9826 15.8564 32.1532 18.6725 28.5125 18.6725H28.2641C24.6187 18.6725 23.794 15.8564 23.794 13.0403V0.955887C23.794 0.829373 23.6909 0.726288 23.5644 0.726288H20.0548C19.9283 0.726288 19.8252 0.829373 19.8252 0.955887V13.1246C19.8252 15.9407 21.3152 20.1625 28.4375 20.1625H28.3531H28.3391Z" fill="black" stroke="black" stroke-width="0.0796567" stroke-miterlimit="10"/>
<path d="M50.2819 1.36368C46.4162 1.53705 44.4014 2.76938 44.4014 7.23016V19.3145C44.4014 19.4411 44.2983 19.5441 44.1718 19.5441H40.6622C40.5357 19.5441 40.4326 19.4411 40.4326 19.3145V7.9049C40.4326 4.34378 42.8223 0.0423139 50.2023 0.0376282C50.549 0.0376282 50.6849 0.070428 50.7177 0.239113C50.7505 0.407797 50.7458 0.871681 50.7224 1.06379C50.7036 1.23248 50.699 1.34493 50.2819 1.36368Z" fill="black" stroke="black" stroke-width="0.0796567" stroke-miterlimit="10"/>
<path d="M67.5813 17.487C67.9093 17.2574 67.9609 17.1684 67.8859 16.9903C67.8203 16.831 67.5954 16.489 67.4876 16.3624C67.3611 16.2125 67.2627 16.086 66.9488 16.3203C63.3502 19.216 57.3712 18.3679 57.1651 13.1902C57.0995 11.6065 57.1557 2.54905 57.1651 0.97934C57.1651 0.852827 57.062 0.745056 56.9355 0.745056H53.4259C53.2994 0.745056 53.1963 0.848141 53.1963 0.974655C53.1963 2.5303 53.1963 11.4518 53.1963 13.1856C53.1916 18.1758 60.8152 22.9271 67.5439 17.5151L67.586 17.4823L67.5813 17.487Z" fill="black" stroke="black" stroke-width="0.0796567" stroke-miterlimit="10"/>
<path d="M127.193 17.487C127.479 17.2621 127.586 17.1824 127.488 16.9669C127.418 16.8123 127.188 16.503 127.099 16.3624C127.01 16.2219 126.841 16.0907 126.56 16.3203C122.962 19.216 116.983 18.3679 116.776 13.1902C116.711 11.6065 116.767 2.54905 116.776 0.97934C116.776 0.852827 116.673 0.745056 116.547 0.745056H113.037C112.911 0.745056 112.808 0.848141 112.808 0.974655C112.808 2.5303 112.808 11.4518 112.808 13.1856C112.803 18.1758 120.427 22.9271 127.155 17.5151L127.197 17.4823L127.193 17.487Z" fill="black" stroke="black" stroke-width="0.0796567" stroke-miterlimit="10"/>
<path d="M138.566 18.874C138.538 18.71 138.552 18.5647 138.13 18.5553C134.264 18.4429 132.249 17.1496 132.249 12.6888V4.00627H137.577C137.703 4.00627 137.807 3.90318 137.807 3.77667V0.955886C137.807 0.829373 137.703 0.726288 137.577 0.726288H123.225C123.098 0.726288 122.995 0.829373 122.995 0.955886V3.77198C122.995 3.8985 123.098 4.00158 123.225 4.00158H128.276V12.0094C128.276 15.5705 130.666 19.872 138.046 19.8767C138.392 19.8767 138.528 19.8439 138.561 19.6752C138.594 19.5065 138.584 19.0333 138.561 18.8693L138.566 18.874Z" fill="black" stroke="black" stroke-width="0.0796567" stroke-miterlimit="10"/>
<path d="M90.1429 16.3673C88.1187 18.771 84.9887 20.2142 81.5353 19.9096C76.531 19.4645 72.5857 15.2708 72.417 10.2524C72.2249 4.53122 76.7934 0.192276 82.4584 0.192276C85.1433 0.192276 87.5845 1.24656 89.3885 2.96152C89.4869 3.05523 89.4823 3.20986 89.3885 3.29889L86.788 5.73544C86.6943 5.81979 86.5537 5.8151 86.4647 5.72607C83.1941 2.47889 75.4299 3.59408 75.4299 10.646C75.4299 18.2978 85.148 20.3642 89.1777 15.5051C89.3932 15.2333 89.5385 15.1865 89.6884 15.2755C89.8384 15.3645 90.2038 15.7113 90.2741 15.7956C90.4053 15.9502 90.4288 16.0955 90.1523 16.3673H90.1429Z" fill="black" stroke="black" stroke-width="0.0796567" stroke-miterlimit="10"/>
<path d="M100.709 20.1625C107.831 20.1625 109.321 15.9407 109.321 13.1246V0.955887C109.321 0.829373 109.218 0.726288 109.092 0.726288H105.582C105.456 0.726288 105.353 0.829373 105.353 0.955887V13.0403C105.353 15.8564 104.523 18.6725 100.883 18.6725H100.634C96.9888 18.6725 96.1641 15.8564 96.1641 13.0403V0.955887C96.1641 0.829373 96.061 0.726288 95.9345 0.726288H92.4249C92.2984 0.726288 92.1953 0.829373 92.1953 0.955887V13.1246C92.1953 15.9407 93.6854 20.1625 100.808 20.1625H100.723H100.709Z" fill="black" stroke="black" stroke-width="0.0796567" stroke-miterlimit="10"/>
<path d="M140.926 0.196777C141.62 0.196777 142.206 0.745003 142.206 1.4666C142.206 2.18819 141.62 2.75048 140.926 2.75048C140.233 2.75048 139.643 2.20225 139.643 1.4666C139.643 0.730946 140.228 0.196777 140.926 0.196777ZM140.926 2.55836C141.517 2.55836 141.971 2.08979 141.971 1.46191C141.971 0.834031 141.512 0.379519 140.926 0.379519C140.341 0.379519 139.872 0.848088 139.872 1.46191C139.872 2.07574 140.327 2.55836 140.926 2.55836ZM140.425 0.721574H141.001C141.358 0.721574 141.522 0.862145 141.522 1.14797C141.522 1.41974 141.353 1.5322 141.128 1.55563L141.554 2.21162H141.306L140.898 1.56968H140.655V2.21162H140.425V0.721574ZM140.659 1.38694H140.903C141.109 1.38694 141.297 1.37757 141.297 1.14329C141.297 0.946487 141.128 0.913687 140.969 0.913687H140.659V1.38694Z" fill="black"/>
</g>
<defs>
<clipPath id="clip0_95_2">
<rect width="142.206" height="20.2" fill="white"/>
</clipPath>
</defs>
</svg>
